#!OML:ASF F:\VICON\USERDATA\INSTALL\rory3\rory3.ASF
:FULLY-SPECIFIED
:DEGREES
82
root 4.57489 17.5611 2.23181 18.8897 2.30549 -1.21615
lowerback -10.1676 1.64217 14.146
upperback -13.6481 1.64602 0.226434
thorax -8.97931 -0.506492 -7.59571
lowerneck -1.5843 18.6216 10.6296
upperneck 7.17928 24.0937 5.17635
head 3.23319 12.381 0.974561
rclavicle -1.59028e-015 7.15625e-015
rhumerus 1.04428 -24.2465 30.6025
rradius 117.351
rwrist -70.7384
rhand -3.68144 -43.5834
rfingers 7.12502
rthumb 22.0598 -72.3452
lclavicle -1.59028e-015 7.15625e-015
lhumerus 35.7212 33.5562 -9.01967
lradius 28.7855
lwrist 32.0153
lhand -24.4026 -17.8817
lfingers 7.12502
lthumb 2.08858 12.0878
rfemur -3.57703 11.1826 -3.0892
rtibia 14.9927
rfoot 20.9582 -18.8371
rtoes -19.2231
lfemur -15.4677 -0.00445921 -28.7532
ltibia 12.8225
lfoot -13.7106 7.80934
ltoes 9.1862
83
root 4.57793 17.5588 2.23755 18.8995 2.19344 -1.26253
lowerback -10.2408 1.70389 14.2068
upperback -13.6242 1.70853 0.194751
thorax -8.89569 -0.476085 -7.66105
lowerneck -1.47603 18.598 10.5708
upperneck 7.09481 24.0827 5.19485
head 3.17276 12.3712 0.965332
rclavicle 5.96354e-015 -7.15625e-015
rhumerus 1.02789 -24.1228 30.5678
rradius 117.432
rwrist -70.7837
rhand -3.62157 -43.7826
rfingers 7.12502
rthumb 22.1173 -72.5376
lclavicle 5.96354e-015 -7.15625e-015
lhumerus 35.5328 33.3388 -9.28284
lradius 28.8946
lwrist 32.5362
lhand -24.5958 -18.275
lfingers 7.12502
lthumb 1.90194 11.6963
rfemur -3.60935 11.3186 -3.09244
rtibia 14.9597
rfoot 20.8206 -18.7081
rtoes -19.0501
lfemur -15.4495 0.221 -28.7735
ltibia 12.8612
lfoot -13.7766 7.76536
ltoes 8.70163
84
root 4.58516 17.5596 2.24672 18.9151 2.23402 -1.44544
lowerback -10.4478 1.74002 14.4438
upperback -13.5441 1.7042 0.217553
thorax -8.69444 -0.48055 -7.76377
lowerneck -1.60326 18.5546 10.58
upperneck 7.17379 24.0062 5.15606
head 3.22897 12.3361 0.969978
rclavicle -9.74045e-015 1.98785e-014
rhumerus 1.0862 -24.0707 30.4395
rradius 117.473
rwrist -70.7447
rhand -3.59056 -44.013
rfingers 7.12502
rthumb 22.1471 -72.7644
lclavicle -9.74045e-015 1.98785e-014
lhumerus 35.5567 33.5035 -9.17306
lradius 28.8882
lwrist 32.2976
lhand -24.6036 -18.413
lfingers 7.12502
lthumb 1.8944 11.5583
rfemur -3.56606 11.3023 -2.88861
rtibia 14.8421
rfoot 21.0112 -18.7381
rtoes -18.9057
lfemur -15.563 0.309776 -28.5893
ltibia 13.017
lfoot -13.907 7.61031
ltoes 9.74396
85
root 4.59441 17.5644 2.251 18.9863 2.29113 -1.74584
lowerback -10.6394 1.7904 14.7981
upperback -13.4703 1.71749 0.288596
thorax -8.51152 -0.48506 -7.87766
lowerneck -1.68951 18.5538 10.4902
upperneck 7.10356 24.0012 5.14579
head 3.20865 12.3287 0.979396
rclavicle 2.22639e-014 -2.38542e-015
rhumerus 1.27151 -24.25 30.2212
rradius 117.363
rwrist -70.6275
rhand -3.61462 -44.2285
rfingers 7.12502
rthumb 22.124 -72.9827
lclavicle 2.22639e-014 -2.38542e-015
lhumerus 35.642 33.803 -8.9397
lradius 28.8431
lwrist 32.0643
lhand -25.3712 -18.327
lfingers 7.12502
lthumb 1.15307 11.6496
rfemur -3.59923 11.2545 -2.56768
rtibia 14.6842
rfoot 21.271 -18.682
rtoes -18.6769
lfemur -15.7873 0.23432 -28.2611
ltibia 13.2276
lfoot -13.9821 7.62199
ltoes 10.5888
86
root 4.59729 17.5707 2.24639 19.1097 2.26418 -1.93339
lowerback -10.6473 1.82064 14.9586
upperback -13.4864 1.75196 0.336066
thorax -8.52554 -0.481619 -7.91231
lowerneck -1.7978 18.5942 10.4202
upperneck 7.14424 24.0388 5.2048
head 3.22547 12.3496 1.01985
rclavicle 8.94531e-015 -2.22639e-014
rhumerus 1.30112 -24.4464 30.2262
rradius 117.341
rwrist -70.5829
rhand -3.82967 -44.1432
rfingers 7.12502
rthumb 21.9175 -72.9217
lclavicle 8.94531e-015 -2.22639e-014
lhumerus 35.892 34.1845 -8.54856
lradius 28.6944
lwrist 31.7026
lhand -26.0085 -18.2817
lfingers 7.12502
lthumb 0.537494 11.6974
rfemur -3.77025 11.3788 -2.39519
rtibia 14.5987
rfoot 21.3804 -18.7309
rtoes -18.5327
lfemur -16.0561 0.244118 -28.0736
ltibia 13.381
lfoot -13.9793 7.66446
ltoes 10.6207
87
root 4.59939 17.5735 2.24138 19.1692 2.20591 -1.96372
lowerback -10.5382 1.83044 14.9853
upperback -13.5331 1.78637 0.315005
thorax -8.63518 -0.479051 -7.95133
lowerneck -2.1231 18.6371 10.349
upperneck 7.53693 24.0234 5.47054
head 3.37673 12.3659 1.16705
rclavicle -1.15295e-014 2.94201e-014
rhumerus 1.17294 -24.5916 30.3743
rradius 117.442
rwrist -70.6914
rhand -3.9797 -43.9673
rfingers 7.12502
rthumb 21.7735 -72.7626
lclavicle -1.15295e-014 2.94201e-014
lhumerus 36.2795 34.5728 -8.01717
lradius 28.5016
lwrist 30.9984
lhand -25.2693 -18.3775
lfingers 7.12502
lthumb 1.25148 11.5986
rfemur -3.97598 11.5053 -2.40186
rtibia 14.7195
rfoot 21.2881 -18.8511
rtoes -18.3081
lfemur -16.1481 0.203443 -28.045
ltibia 13.3688
lfoot -13.9641 7.73111
ltoes 10.7074
88
root 4.60198 17.5724 2.23396 19.1513 2.11368 -1.94157
lowerback -10.3057 1.85595 14.9928
upperback -13.6132 1.86649 0.257493
thorax -8.84179 -0.463232 -8.02138
lowerneck -2.2983 18.5613 10.4228
upperneck 7.93257 23.8704 5.59173
head 3.54113 12.313 1.23661
rclavicle 7.35503e-015 3.18055e-015
rhumerus 1.20885 -24.5987 30.3369
rradius 117.455
rwrist -70.8288
rhand -3.95585 -44.0242
rfingers 7.12502
rthumb 21.7964 -72.8168
lclavicle 7.35503e-015 3.18055e-015
lhumerus 36.5402 34.6364 -7.69517
lradius 28.4154
lwrist 30.5726
lhand -25.0058 -18.4507
lfingers 7.12502
lthumb 1.50595 11.5237
rfemur -4.19914 11.6027 -2.47448
rtibia 15.009
rfoot 21.3093 -18.8165
rtoes -18.1808
lfemur -16.0299 0.239773 -28.1089
ltibia 13.2047
lfoot -13.8794 7.85307
ltoes 9.81094
89
root 4.60296 17.5701 2.22829 19.1255 2.06146 -1.87178
lowerback -10.2077 1.87247 14.9128
upperback -13.6063 1.90621 0.204994
thorax -8.87414 -0.441221 -8.03598
lowerneck -2.39191 18.4313 10.6849
upperneck 8.15331 23.6725 5.40641
head 3.69695 12.2242 1.1768
rclavicle -1.45113e-014 7.95139e-015
rhumerus 1.32226 -24.7013 30.1614
rradius 117.365
rwrist -70.7734
rhand -3.53884 -44.1877
rfingers 7.12502
rthumb 22.1967 -72.9332
lclavicle -1.45113e-014 7.95139e-015
lhumerus 36.5885 34.5668 -7.66434
lradius 28.4443
lwrist 30.7299
lhand -26.0172 -18.2748
lfingers 7.12502
lthumb 0.529123 11.7042
rfemur -4.37649 11.6289 -2.56201
rtibia 15.323
rfoot 21.3595 -18.7965
rtoes -18.6
lfemur -15.8532 0.362101 -28.236
ltibia 12.97
lfoot -13.7391 7.86183
ltoes 8.2426
